<svg height="39" width="39" xmlns="http://www.w3.org/2000/svg">  <rect width="39" height="39" x="0" y="0" fill="#ffffff" />
  <rect width="1" height="1" x="1" y="1" fill="#000000" />
  <rect width="1" height="1" x="2" y="1" fill="#000000" />
  <rect width="1" height="1" x="3" y="1" fill="#000000" />
  <rect width="1" height="1" x="4" y="1" fill="#000000" />
  <rect width="1" height="1" x="5" y="1" fill="#000000" />
  <rect width="1" height="1" x="6" y="1" fill="#000000" />
  <rect width="1" height="1" x="7" y="1" fill="#000000" />
  <rect width="1" height="1" x="9" y="1" fill="#000000" />
  <rect width="1" height="1" x="10" y="1" fill="#000000" />
  <rect width="1" height="1" x="11" y="1" fill="#000000" />
  <rect width="1" height="1" x="12" y="1" fill="#000000" />
  <rect width="1" height="1" x="14" y="1" fill="#000000" />
  <rect width="1" height="1" x="15" y="1" fill="#000000" />
  <rect width="1" height="1" x="16" y="1" fill="#000000" />
  <rect width="1" height="1" x="20" y="1" fill="#000000" />
  <rect width="1" height="1" x="23" y="1" fill="#000000" />
  <rect width="1" height="1" x="25" y="1" fill="#000000" />
  <rect width="1" height="1" x="26" y="1" fill="#000000" />
  <rect width="1" height="1" x="29" y="1" fill="#000000" />
  <rect width="1" height="1" x="31" y="1" fill="#000000" />
  <rect width="1" height="1" x="32" y="1" fill="#000000" />
  <rect width="1" height="1" x="33" y="1" fill="#000000" />
  <rect width="1" height="1" x="34" y="1" fill="#000000" />
  <rect width="1" height="1" x="35" y="1" fill="#000000" />
  <rect width="1" height="1" x="36" y="1" fill="#000000" />
  <rect width="1" height="1" x="37" y="1" fill="#000000" />
  <rect width="1" height="1" x="1" y="2" fill="#000000" />
  <rect width="1" height="1" x="7" y="2" fill="#000000" />
  <rect width="1" height="1" x="9" y="2" fill="#000000" />
  <rect width="1" height="1" x="12" y="2" fill="#000000" />
  <rect width="1" height="1" x="16" y="2" fill="#000000" />
  <rect width="1" height="1" x="21" y="2" fill="#000000" />
  <rect width="1" height="1" x="23" y="2" fill="#000000" />
  <rect width="1" height="1" x="25" y="2" fill="#000000" />
  <rect width="1" height="1" x="29" y="2" fill="#000000" />
  <rect width="1" height="1" x="31" y="2" fill="#000000" />
  <rect width="1" height="1" x="37" y="2" fill="#000000" />
  <rect width="1" height="1" x="1" y="3" fill="#000000" />
  <rect width="1" height="1" x="3" y="3" fill="#000000" />
  <rect width="1" height="1" x="4" y="3" fill="#000000" />
  <rect width="1" height="1" x="5" y="3" fill="#000000" />
  <rect width="1" height="1" x="7" y="3" fill="#000000" />
  <rect width="1" height="1" x="10" y="3" fill="#000000" />
  <rect width="1" height="1" x="14" y="3" fill="#000000" />
  <rect width="1" height="1" x="18" y="3" fill="#000000" />
  <rect width="1" height="1" x="21" y="3" fill="#000000" />
  <rect width="1" height="1" x="22" y="3" fill="#000000" />
  <rect width="1" height="1" x="24" y="3" fill="#000000" />
  <rect width="1" height="1" x="26" y="3" fill="#000000" />
  <rect width="1" height="1" x="31" y="3" fill="#000000" />
  <rect width="1" height="1" x="33" y="3" fill="#000000" />
  <rect width="1" height="1" x="34" y="3" fill="#000000" />
  <rect width="1" height="1" x="35" y="3" fill="#000000" />
  <rect width="1" height="1" x="37" y="3" fill="#000000" />
  <rect width="1" height="1" x="1" y="4" fill="#000000" />
  <rect width="1" height="1" x="3" y="4" fill="#000000" />
  <rect width="1" height="1" x="4" y="4" fill="#000000" />
  <rect width="1" height="1" x="5" y="4" fill="#000000" />
  <rect width="1" height="1" x="7" y="4" fill="#000000" />
  <rect width="1" height="1" x="12" y="4" fill="#000000" />
  <rect width="1" height="1" x="13" y="4" fill="#000000" />
  <rect width="1" height="1" x="16" y="4" fill="#000000" />
  <rect width="1" height="1" x="17" y="4" fill="#000000" />
  <rect width="1" height="1" x="19" y="4" fill="#000000" />
  <rect width="1" height="1" x="21" y="4" fill="#000000" />
  <rect width="1" height="1" x="23" y="4" fill="#000000" />
  <rect width="1" height="1" x="25" y="4" fill="#000000" />
  <rect width="1" height="1" x="27" y="4" fill="#000000" />
  <rect width="1" height="1" x="28" y="4" fill="#000000" />
  <rect width="1" height="1" x="31" y="4" fill="#000000" />
  <rect width="1" height="1" x="33" y="4" fill="#000000" />
  <rect width="1" height="1" x="34" y="4" fill="#000000" />
  <rect width="1" height="1" x="35" y="4" fill="#000000" />
  <rect width="1" height="1" x="37" y="4" fill="#000000" />
  <rect width="1" height="1" x="1" y="5" fill="#000000" />
  <rect width="1" height="1" x="3" y="5" fill="#000000" />
  <rect width="1" height="1" x="4" y="5" fill="#000000" />
  <rect width="1" height="1" x="5" y="5" fill="#000000" />
  <rect width="1" height="1" x="7" y="5" fill="#000000" />
  <rect width="1" height="1" x="9" y="5" fill="#000000" />
  <rect width="1" height="1" x="12" y="5" fill="#000000" />
  <rect width="1" height="1" x="13" y="5" fill="#000000" />
  <rect width="1" height="1" x="16" y="5" fill="#000000" />
  <rect width="1" height="1" x="17" y="5" fill="#000000" />
  <rect width="1" height="1" x="20" y="5" fill="#000000" />
  <rect width="1" height="1" x="22" y="5" fill="#000000" />
  <rect width="1" height="1" x="23" y="5" fill="#000000" />
  <rect width="1" height="1" x="27" y="5" fill="#000000" />
  <rect width="1" height="1" x="29" y="5" fill="#000000" />
  <rect width="1" height="1" x="31" y="5" fill="#000000" />
  <rect width="1" height="1" x="33" y="5" fill="#000000" />
  <rect width="1" height="1" x="34" y="5" fill="#000000" />
  <rect width="1" height="1" x="35" y="5" fill="#000000" />
  <rect width="1" height="1" x="37" y="5" fill="#000000" />
  <rect width="1" height="1" x="1" y="6" fill="#000000" />
  <rect width="1" height="1" x="7" y="6" fill="#000000" />
  <rect width="1" height="1" x="9" y="6" fill="#000000" />
  <rect width="1" height="1" x="10" y="6" fill="#000000" />
  <rect width="1" height="1" x="11" y="6" fill="#000000" />
  <rect width="1" height="1" x="13" y="6" fill="#000000" />
  <rect width="1" height="1" x="14" y="6" fill="#000000" />
  <rect width="1" height="1" x="15" y="6" fill="#000000" />
  <rect width="1" height="1" x="17" y="6" fill="#000000" />
  <rect width="1" height="1" x="21" y="6" fill="#000000" />
  <rect width="1" height="1" x="26" y="6" fill="#000000" />
  <rect width="1" height="1" x="31" y="6" fill="#000000" />
  <rect width="1" height="1" x="37" y="6" fill="#000000" />
  <rect width="1" height="1" x="1" y="7" fill="#000000" />
  <rect width="1" height="1" x="2" y="7" fill="#000000" />
  <rect width="1" height="1" x="3" y="7" fill="#000000" />
  <rect width="1" height="1" x="4" y="7" fill="#000000" />
  <rect width="1" height="1" x="5" y="7" fill="#000000" />
  <rect width="1" height="1" x="6" y="7" fill="#000000" />
  <rect width="1" height="1" x="7" y="7" fill="#000000" />
  <rect width="1" height="1" x="9" y="7" fill="#000000" />
  <rect width="1" height="1" x="11" y="7" fill="#000000" />
  <rect width="1" height="1" x="13" y="7" fill="#000000" />
  <rect width="1" height="1" x="15" y="7" fill="#000000" />
  <rect width="1" height="1" x="17" y="7" fill="#000000" />
  <rect width="1" height="1" x="19" y="7" fill="#000000" />
  <rect width="1" height="1" x="21" y="7" fill="#000000" />
  <rect width="1" height="1" x="23" y="7" fill="#000000" />
  <rect width="1" height="1" x="25" y="7" fill="#000000" />
  <rect width="1" height="1" x="27" y="7" fill="#000000" />
  <rect width="1" height="1" x="29" y="7" fill="#000000" />
  <rect width="1" height="1" x="31" y="7" fill="#000000" />
  <rect width="1" height="1" x="32" y="7" fill="#000000" />
  <rect width="1" height="1" x="33" y="7" fill="#000000" />
  <rect width="1" height="1" x="34" y="7" fill="#000000" />
  <rect width="1" height="1" x="35" y="7" fill="#000000" />
  <rect width="1" height="1" x="36" y="7" fill="#000000" />
  <rect width="1" height="1" x="37" y="7" fill="#000000" />
  <rect width="1" height="1" x="9" y="8" fill="#000000" />
  <rect width="1" height="1" x="10" y="8" fill="#000000" />
  <rect width="1" height="1" x="14" y="8" fill="#000000" />
  <rect width="1" height="1" x="19" y="8" fill="#000000" />
  <rect width="1" height="1" x="20" y="8" fill="#000000" />
  <rect width="1" height="1" x="23" y="8" fill="#000000" />
  <rect width="1" height="1" x="29" y="8" fill="#000000" />
  <rect width="1" height="1" x="1" y="9" fill="#000000" />
  <rect width="1" height="1" x="2" y="9" fill="#000000" />
  <rect width="1" height="1" x="3" y="9" fill="#000000" />
  <rect width="1" height="1" x="6" y="9" fill="#000000" />
  <rect width="1" height="1" x="7" y="9" fill="#000000" />
  <rect width="1" height="1" x="9" y="9" fill="#000000" />
  <rect width="1" height="1" x="10" y="9" fill="#000000" />
  <rect width="1" height="1" x="12" y="9" fill="#000000" />
  <rect width="1" height="1" x="13" y="9" fill="#000000" />
  <rect width="1" height="1" x="14" y="9" fill="#000000" />
  <rect width="1" height="1" x="16" y="9" fill="#000000" />
  <rect width="1" height="1" x="17" y="9" fill="#000000" />
  <rect width="1" height="1" x="19" y="9" fill="#000000" />
  <rect width="1" height="1" x="20" y="9" fill="#000000" />
  <rect width="1" height="1" x="23" y="9" fill="#000000" />
  <rect width="1" height="1" x="24" y="9" fill="#000000" />
  <rect width="1" height="1" x="28" y="9" fill="#000000" />
  <rect width="1" height="1" x="29" y="9" fill="#000000" />
  <rect width="1" height="1" x="30" y="9" fill="#000000" />
  <rect width="1" height="1" x="31" y="9" fill="#000000" />
  <rect width="1" height="1" x="32" y="9" fill="#000000" />
  <rect width="1" height="1" x="33" y="9" fill="#000000" />
  <rect width="1" height="1" x="36" y="9" fill="#000000" />
  <rect width="1" height="1" x="37" y="9" fill="#000000" />
  <rect width="1" height="1" x="2" y="10" fill="#000000" />
  <rect width="1" height="1" x="3" y="10" fill="#000000" />
  <rect width="1" height="1" x="5" y="10" fill="#000000" />
  <rect width="1" height="1" x="6" y="10" fill="#000000" />
  <rect width="1" height="1" x="9" y="10" fill="#000000" />
  <rect width="1" height="1" x="13" y="10" fill="#000000" />
  <rect width="1" height="1" x="17" y="10" fill="#000000" />
  <rect width="1" height="1" x="18" y="10" fill="#000000" />
  <rect width="1" height="1" x="19" y="10" fill="#000000" />
  <rect width="1" height="1" x="21" y="10" fill="#000000" />
  <rect width="1" height="1" x="23" y="10" fill="#000000" />
  <rect width="1" height="1" x="25" y="10" fill="#000000" />
  <rect width="1" height="1" x="27" y="10" fill="#000000" />
  <rect width="1" height="1" x="28" y="10" fill="#000000" />
  <rect width="1" height="1" x="29" y="10" fill="#000000" />
  <rect width="1" height="1" x="31" y="10" fill="#000000" />
  <rect width="1" height="1" x="32" y="10" fill="#000000" />
  <rect width="1" height="1" x="35" y="10" fill="#000000" />
  <rect width="1" height="1" x="36" y="10" fill="#000000" />
  <rect width="1" height="1" x="37" y="10" fill="#000000" />
  <rect width="1" height="1" x="3" y="11" fill="#000000" />
  <rect width="1" height="1" x="4" y="11" fill="#000000" />
  <rect width="1" height="1" x="5" y="11" fill="#000000" />
  <rect width="1" height="1" x="7" y="11" fill="#000000" />
  <rect width="1" height="1" x="9" y="11" fill="#000000" />
  <rect width="1" height="1" x="10" y="11" fill="#000000" />
  <rect width="1" height="1" x="13" y="11" fill="#000000" />
  <rect width="1" height="1" x="14" y="11" fill="#000000" />
  <rect width="1" height="1" x="15" y="11" fill="#000000" />
  <rect width="1" height="1" x="17" y="11" fill="#000000" />
  <rect width="1" height="1" x="18" y="11" fill="#000000" />
  <rect width="1" height="1" x="19" y="11" fill="#000000" />
  <rect width="1" height="1" x="20" y="11" fill="#000000" />
  <rect width="1" height="1" x="21" y="11" fill="#000000" />
  <rect width="1" height="1" x="24" y="11" fill="#000000" />
  <rect width="1" height="1" x="25" y="11" fill="#000000" />
  <rect width="1" height="1" x="28" y="11" fill="#000000" />
  <rect width="1" height="1" x="31" y="11" fill="#000000" />
  <rect width="1" height="1" x="32" y="11" fill="#000000" />
  <rect width="1" height="1" x="33" y="11" fill="#000000" />
  <rect width="1" height="1" x="34" y="11" fill="#000000" />
  <rect width="1" height="1" x="36" y="11" fill="#000000" />
  <rect width="1" height="1" x="37" y="11" fill="#000000" />
  <rect width="1" height="1" x="2" y="12" fill="#000000" />
  <rect width="1" height="1" x="3" y="12" fill="#000000" />
  <rect width="1" height="1" x="6" y="12" fill="#000000" />
  <rect width="1" height="1" x="8" y="12" fill="#000000" />
  <rect width="1" height="1" x="12" y="12" fill="#000000" />
  <rect width="1" height="1" x="13" y="12" fill="#000000" />
  <rect width="1" height="1" x="15" y="12" fill="#000000" />
  <rect width="1" height="1" x="16" y="12" fill="#000000" />
  <rect width="1" height="1" x="17" y="12" fill="#000000" />
  <rect width="1" height="1" x="20" y="12" fill="#000000" />
  <rect width="1" height="1" x="23" y="12" fill="#000000" />
  <rect width="1" height="1" x="28" y="12" fill="#000000" />
  <rect width="1" height="1" x="29" y="12" fill="#000000" />
  <rect width="1" height="1" x="30" y="12" fill="#000000" />
  <rect width="1" height="1" x="32" y="12" fill="#000000" />
  <rect width="1" height="1" x="33" y="12" fill="#000000" />
  <rect width="1" height="1" x="36" y="12" fill="#000000" />
  <rect width="1" height="1" x="37" y="12" fill="#000000" />
  <rect width="1" height="1" x="1" y="13" fill="#000000" />
  <rect width="1" height="1" x="3" y="13" fill="#000000" />
  <rect width="1" height="1" x="6" y="13" fill="#000000" />
  <rect width="1" height="1" x="7" y="13" fill="#000000" />
  <rect width="1" height="1" x="10" y="13" fill="#000000" />
  <rect width="1" height="1" x="11" y="13" fill="#000000" />
  <rect width="1" height="1" x="14" y="13" fill="#000000" />
  <rect width="1" height="1" x="15" y="13" fill="#000000" />
  <rect width="1" height="1" x="20" y="13" fill="#000000" />
  <rect width="1" height="1" x="21" y="13" fill="#000000" />
  <rect width="1" height="1" x="24" y="13" fill="#000000" />
  <rect width="1" height="1" x="29" y="13" fill="#000000" />
  <rect width="1" height="1" x="30" y="13" fill="#000000" />
  <rect width="1" height="1" x="31" y="13" fill="#000000" />
  <rect width="1" height="1" x="32" y="13" fill="#000000" />
  <rect width="1" height="1" x="34" y="13" fill="#000000" />
  <rect width="1" height="1" x="36" y="13" fill="#000000" />
  <rect width="1" height="1" x="37" y="13" fill="#000000" />
  <rect width="1" height="1" x="1" y="14" fill="#000000" />
  <rect width="1" height="1" x="2" y="14" fill="#000000" />
  <rect width="1" height="1" x="5" y="14" fill="#000000" />
  <rect width="1" height="1" x="8" y="14" fill="#000000" />
  <rect width="1" height="1" x="9" y="14" fill="#000000" />
  <rect width="1" height="1" x="10" y="14" fill="#000000" />
  <rect width="1" height="1" x="14" y="14" fill="#000000" />
  <rect width="1" height="1" x="15" y="14" fill="#000000" />
  <rect width="1" height="1" x="19" y="14" fill="#000000" />
  <rect width="1" height="1" x="21" y="14" fill="#000000" />
  <rect width="1" height="1" x="22" y="14" fill="#000000" />
  <rect width="1" height="1" x="24" y="14" fill="#000000" />
  <rect width="1" height="1" x="25" y="14" fill="#000000" />
  <rect width="1" height="1" x="27" y="14" fill="#000000" />
  <rect width="1" height="1" x="28" y="14" fill="#000000" />
  <rect width="1" height="1" x="31" y="14" fill="#000000" />
  <rect width="1" height="1" x="32" y="14" fill="#000000" />
  <rect width="1" height="1" x="34" y="14" fill="#000000" />
  <rect width="1" height="1" x="35" y="14" fill="#000000" />
  <rect width="1" height="1" x="36" y="14" fill="#000000" />
  <rect width="1" height="1" x="37" y="14" fill="#000000" />
  <rect width="1" height="1" x="4" y="15" fill="#000000" />
  <rect width="1" height="1" x="5" y="15" fill="#000000" />
  <rect width="1" height="1" x="7" y="15" fill="#000000" />
  <rect width="1" height="1" x="8" y="15" fill="#000000" />
  <rect width="1" height="1" x="9" y="15" fill="#000000" />
  <rect width="1" height="1" x="10" y="15" fill="#000000" />
  <rect width="1" height="1" x="11" y="15" fill="#000000" />
  <rect width="1" height="1" x="12" y="15" fill="#000000" />
  <rect width="1" height="1" x="16" y="15" fill="#000000" />
  <rect width="1" height="1" x="19" y="15" fill="#000000" />
  <rect width="1" height="1" x="20" y="15" fill="#000000" />
  <rect width="1" height="1" x="22" y="15" fill="#000000" />
  <rect width="1" height="1" x="24" y="15" fill="#000000" />
  <rect width="1" height="1" x="25" y="15" fill="#000000" />
  <rect width="1" height="1" x="28" y="15" fill="#000000" />
  <rect width="1" height="1" x="37" y="15" fill="#000000" />
  <rect width="1" height="1" x="1" y="16" fill="#000000" />
  <rect width="1" height="1" x="3" y="16" fill="#000000" />
  <rect width="1" height="1" x="5" y="16" fill="#000000" />
  <rect width="1" height="1" x="8" y="16" fill="#000000" />
  <rect width="1" height="1" x="11" y="16" fill="#000000" />
  <rect width="1" height="1" x="14" y="16" fill="#000000" />
  <rect width="1" height="1" x="19" y="16" fill="#000000" />
  <rect width="1" height="1" x="20" y="16" fill="#000000" />
  <rect width="1" height="1" x="21" y="16" fill="#000000" />
  <rect width="1" height="1" x="23" y="16" fill="#000000" />
  <rect width="1" height="1" x="24" y="16" fill="#000000" />
  <rect width="1" height="1" x="25" y="16" fill="#000000" />
  <rect width="1" height="1" x="28" y="16" fill="#000000" />
  <rect width="1" height="1" x="31" y="16" fill="#000000" />
  <rect width="1" height="1" x="32" y="16" fill="#000000" />
  <rect width="1" height="1" x="2" y="17" fill="#000000" />
  <rect width="1" height="1" x="3" y="17" fill="#000000" />
  <rect width="1" height="1" x="5" y="17" fill="#000000" />
  <rect width="1" height="1" x="7" y="17" fill="#000000" />
  <rect width="1" height="1" x="10" y="17" fill="#000000" />
  <rect width="1" height="1" x="11" y="17" fill="#000000" />
  <rect width="1" height="1" x="12" y="17" fill="#000000" />
  <rect width="1" height="1" x="13" y="17" fill="#000000" />
  <rect width="1" height="1" x="14" y="17" fill="#000000" />
  <rect width="1" height="1" x="16" y="17" fill="#000000" />
  <rect width="1" height="1" x="17" y="17" fill="#000000" />
  <rect width="1" height="1" x="20" y="17" fill="#000000" />
  <rect width="1" height="1" x="24" y="17" fill="#000000" />
  <rect width="1" height="1" x="25" y="17" fill="#000000" />
  <rect width="1" height="1" x="27" y="17" fill="#000000" />
  <rect width="1" height="1" x="28" y="17" fill="#000000" />
  <rect width="1" height="1" x="31" y="17" fill="#000000" />
  <rect width="1" height="1" x="32" y="17" fill="#000000" />
  <rect width="1" height="1" x="34" y="17" fill="#000000" />
  <rect width="1" height="1" x="36" y="17" fill="#000000" />
  <rect width="1" height="1" x="37" y="17" fill="#000000" />
  <rect width="1" height="1" x="1" y="18" fill="#000000" />
  <rect width="1" height="1" x="3" y="18" fill="#000000" />
  <rect width="1" height="1" x="9" y="18" fill="#000000" />
  <rect width="1" height="1" x="11" y="18" fill="#000000" />
  <rect width="1" height="1" x="13" y="18" fill="#000000" />
  <rect width="1" height="1" x="17" y="18" fill="#000000" />
  <rect width="1" height="1" x="20" y="18" fill="#000000" />
  <rect width="1" height="1" x="21" y="18" fill="#000000" />
  <rect width="1" height="1" x="22" y="18" fill="#000000" />
  <rect width="1" height="1" x="25" y="18" fill="#000000" />
  <rect width="1" height="1" x="27" y="18" fill="#000000" />
  <rect width="1" height="1" x="28" y="18" fill="#000000" />
  <rect width="1" height="1" x="29" y="18" fill="#000000" />
  <rect width="1" height="1" x="31" y="18" fill="#000000" />
  <rect width="1" height="1" x="32" y="18" fill="#000000" />
  <rect width="1" height="1" x="34" y="18" fill="#000000" />
  <rect width="1" height="1" x="35" y="18" fill="#000000" />
  <rect width="1" height="1" x="36" y="18" fill="#000000" />
  <rect width="1" height="1" x="37" y="18" fill="#000000" />
  <rect width="1" height="1" x="1" y="19" fill="#000000" />
  <rect width="1" height="1" x="2" y="19" fill="#000000" />
  <rect width="1" height="1" x="4" y="19" fill="#000000" />
  <rect width="1" height="1" x="5" y="19" fill="#000000" />
  <rect width="1" height="1" x="7" y="19" fill="#000000" />
  <rect width="1" height="1" x="8" y="19" fill="#000000" />
  <rect width="1" height="1" x="13" y="19" fill="#000000" />
  <rect width="1" height="1" x="14" y="19" fill="#000000" />
  <rect width="1" height="1" x="15" y="19" fill="#000000" />
  <rect width="1" height="1" x="17" y="19" fill="#000000" />
  <rect width="1" height="1" x="20" y="19" fill="#000000" />
  <rect width="1" height="1" x="24" y="19" fill="#000000" />
  <rect width="1" height="1" x="25" y="19" fill="#000000" />
  <rect width="1" height="1" x="26" y="19" fill="#000000" />
  <rect width="1" height="1" x="28" y="19" fill="#000000" />
  <rect width="1" height="1" x="30" y="19" fill="#000000" />
  <rect width="1" height="1" x="31" y="19" fill="#000000" />
  <rect width="1" height="1" x="37" y="19" fill="#000000" />
  <rect width="1" height="1" x="1" y="20" fill="#000000" />
  <rect width="1" height="1" x="3" y="20" fill="#000000" />
  <rect width="1" height="1" x="6" y="20" fill="#000000" />
  <rect width="1" height="1" x="8" y="20" fill="#000000" />
  <rect width="1" height="1" x="9" y="20" fill="#000000" />
  <rect width="1" height="1" x="12" y="20" fill="#000000" />
  <rect width="1" height="1" x="13" y="20" fill="#000000" />
  <rect width="1" height="1" x="15" y="20" fill="#000000" />
  <rect width="1" height="1" x="16" y="20" fill="#000000" />
  <rect width="1" height="1" x="17" y="20" fill="#000000" />
  <rect width="1" height="1" x="19" y="20" fill="#000000" />
  <rect width="1" height="1" x="21" y="20" fill="#000000" />
  <rect width="1" height="1" x="23" y="20" fill="#000000" />
  <rect width="1" height="1" x="24" y="20" fill="#000000" />
  <rect width="1" height="1" x="29" y="20" fill="#000000" />
  <rect width="1" height="1" x="30" y="20" fill="#000000" />
  <rect width="1" height="1" x="31" y="20" fill="#000000" />
  <rect width="1" height="1" x="32" y="20" fill="#000000" />
  <rect width="1" height="1" x="33" y="20" fill="#000000" />
  <rect width="1" height="1" x="34" y="20" fill="#000000" />
  <rect width="1" height="1" x="1" y="21" fill="#000000" />
  <rect width="1" height="1" x="2" y="21" fill="#000000" />
  <rect width="1" height="1" x="3" y="21" fill="#000000" />
  <rect width="1" height="1" x="4" y="21" fill="#000000" />
  <rect width="1" height="1" x="7" y="21" fill="#000000" />
  <rect width="1" height="1" x="9" y="21" fill="#000000" />
  <rect width="1" height="1" x="11" y="21" fill="#000000" />
  <rect width="1" height="1" x="14" y="21" fill="#000000" />
  <rect width="1" height="1" x="15" y="21" fill="#000000" />
  <rect width="1" height="1" x="17" y="21" fill="#000000" />
  <rect width="1" height="1" x="18" y="21" fill="#000000" />
  <rect width="1" height="1" x="20" y="21" fill="#000000" />
  <rect width="1" height="1" x="21" y="21" fill="#000000" />
  <rect width="1" height="1" x="23" y="21" fill="#000000" />
  <rect width="1" height="1" x="24" y="21" fill="#000000" />
  <rect width="1" height="1" x="29" y="21" fill="#000000" />
  <rect width="1" height="1" x="31" y="21" fill="#000000" />
  <rect width="1" height="1" x="32" y="21" fill="#000000" />
  <rect width="1" height="1" x="34" y="21" fill="#000000" />
  <rect width="1" height="1" x="37" y="21" fill="#000000" />
  <rect width="1" height="1" x="1" y="22" fill="#000000" />
  <rect width="1" height="1" x="3" y="22" fill="#000000" />
  <rect width="1" height="1" x="4" y="22" fill="#000000" />
  <rect width="1" height="1" x="5" y="22" fill="#000000" />
  <rect width="1" height="1" x="8" y="22" fill="#000000" />
  <rect width="1" height="1" x="10" y="22" fill="#000000" />
  <rect width="1" height="1" x="11" y="22" fill="#000000" />
  <rect width="1" height="1" x="14" y="22" fill="#000000" />
  <rect width="1" height="1" x="15" y="22" fill="#000000" />
  <rect width="1" height="1" x="18" y="22" fill="#000000" />
  <rect width="1" height="1" x="20" y="22" fill="#000000" />
  <rect width="1" height="1" x="21" y="22" fill="#000000" />
  <rect width="1" height="1" x="22" y="22" fill="#000000" />
  <rect width="1" height="1" x="23" y="22" fill="#000000" />
  <rect width="1" height="1" x="24" y="22" fill="#000000" />
  <rect width="1" height="1" x="25" y="22" fill="#000000" />
  <rect width="1" height="1" x="26" y="22" fill="#000000" />
  <rect width="1" height="1" x="28" y="22" fill="#000000" />
  <rect width="1" height="1" x="29" y="22" fill="#000000" />
  <rect width="1" height="1" x="31" y="22" fill="#000000" />
  <rect width="1" height="1" x="32" y="22" fill="#000000" />
  <rect width="1" height="1" x="34" y="22" fill="#000000" />
  <rect width="1" height="1" x="36" y="22" fill="#000000" />
  <rect width="1" height="1" x="37" y="22" fill="#000000" />
  <rect width="1" height="1" x="1" y="23" fill="#000000" />
  <rect width="1" height="1" x="3" y="23" fill="#000000" />
  <rect width="1" height="1" x="5" y="23" fill="#000000" />
  <rect width="1" height="1" x="7" y="23" fill="#000000" />
  <rect width="1" height="1" x="8" y="23" fill="#000000" />
  <rect width="1" height="1" x="9" y="23" fill="#000000" />
  <rect width="1" height="1" x="10" y="23" fill="#000000" />
  <rect width="1" height="1" x="11" y="23" fill="#000000" />
  <rect width="1" height="1" x="12" y="23" fill="#000000" />
  <rect width="1" height="1" x="16" y="23" fill="#000000" />
  <rect width="1" height="1" x="17" y="23" fill="#000000" />
  <rect width="1" height="1" x="20" y="23" fill="#000000" />
  <rect width="1" height="1" x="22" y="23" fill="#000000" />
  <rect width="1" height="1" x="23" y="23" fill="#000000" />
  <rect width="1" height="1" x="24" y="23" fill="#000000" />
  <rect width="1" height="1" x="25" y="23" fill="#000000" />
  <rect width="1" height="1" x="26" y="23" fill="#000000" />
  <rect width="1" height="1" x="27" y="23" fill="#000000" />
  <rect width="1" height="1" x="28" y="23" fill="#000000" />
  <rect width="1" height="1" x="29" y="23" fill="#000000" />
  <rect width="1" height="1" x="34" y="23" fill="#000000" />
  <rect width="1" height="1" x="35" y="23" fill="#000000" />
  <rect width="1" height="1" x="37" y="23" fill="#000000" />
  <rect width="1" height="1" x="1" y="24" fill="#000000" />
  <rect width="1" height="1" x="4" y="24" fill="#000000" />
  <rect width="1" height="1" x="5" y="24" fill="#000000" />
  <rect width="1" height="1" x="6" y="24" fill="#000000" />
  <rect width="1" height="1" x="8" y="24" fill="#000000" />
  <rect width="1" height="1" x="14" y="24" fill="#000000" />
  <rect width="1" height="1" x="17" y="24" fill="#000000" />
  <rect width="1" height="1" x="19" y="24" fill="#000000" />
  <rect width="1" height="1" x="20" y="24" fill="#000000" />
  <rect width="1" height="1" x="23" y="24" fill="#000000" />
  <rect width="1" height="1" x="24" y="24" fill="#000000" />
  <rect width="1" height="1" x="25" y="24" fill="#000000" />
  <rect width="1" height="1" x="28" y="24" fill="#000000" />
  <rect width="1" height="1" x="30" y="24" fill="#000000" />
  <rect width="1" height="1" x="31" y="24" fill="#000000" />
  <rect width="1" height="1" x="32" y="24" fill="#000000" />
  <rect width="1" height="1" x="33" y="24" fill="#000000" />
  <rect width="1" height="1" x="34" y="24" fill="#000000" />
  <rect width="1" height="1" x="1" y="25" fill="#000000" />
  <rect width="1" height="1" x="5" y="25" fill="#000000" />
  <rect width="1" height="1" x="7" y="25" fill="#000000" />
  <rect width="1" height="1" x="10" y="25" fill="#000000" />
  <rect width="1" height="1" x="11" y="25" fill="#000000" />
  <rect width="1" height="1" x="12" y="25" fill="#000000" />
  <rect width="1" height="1" x="13" y="25" fill="#000000" />
  <rect width="1" height="1" x="14" y="25" fill="#000000" />
  <rect width="1" height="1" x="16" y="25" fill="#000000" />
  <rect width="1" height="1" x="18" y="25" fill="#000000" />
  <rect width="1" height="1" x="20" y="25" fill="#000000" />
  <rect width="1" height="1" x="24" y="25" fill="#000000" />
  <rect width="1" height="1" x="28" y="25" fill="#000000" />
  <rect width="1" height="1" x="31" y="25" fill="#000000" />
  <rect width="1" height="1" x="32" y="25" fill="#000000" />
  <rect width="1" height="1" x="34" y="25" fill="#000000" />
  <rect width="1" height="1" x="37" y="25" fill="#000000" />
  <rect width="1" height="1" x="2" y="26" fill="#000000" />
  <rect width="1" height="1" x="4" y="26" fill="#000000" />
  <rect width="1" height="1" x="6" y="26" fill="#000000" />
  <rect width="1" height="1" x="9" y="26" fill="#000000" />
  <rect width="1" height="1" x="11" y="26" fill="#000000" />
  <rect width="1" height="1" x="13" y="26" fill="#000000" />
  <rect width="1" height="1" x="16" y="26" fill="#000000" />
  <rect width="1" height="1" x="17" y="26" fill="#000000" />
  <rect width="1" height="1" x="21" y="26" fill="#000000" />
  <rect width="1" height="1" x="22" y="26" fill="#000000" />
  <rect width="1" height="1" x="23" y="26" fill="#000000" />
  <rect width="1" height="1" x="24" y="26" fill="#000000" />
  <rect width="1" height="1" x="26" y="26" fill="#000000" />
  <rect width="1" height="1" x="28" y="26" fill="#000000" />
  <rect width="1" height="1" x="29" y="26" fill="#000000" />
  <rect width="1" height="1" x="31" y="26" fill="#000000" />
  <rect width="1" height="1" x="32" y="26" fill="#000000" />
  <rect width="1" height="1" x="34" y="26" fill="#000000" />
  <rect width="1" height="1" x="35" y="26" fill="#000000" />
  <rect width="1" height="1" x="36" y="26" fill="#000000" />
  <rect width="1" height="1" x="37" y="26" fill="#000000" />
  <rect width="1" height="1" x="1" y="27" fill="#000000" />
  <rect width="1" height="1" x="2" y="27" fill="#000000" />
  <rect width="1" height="1" x="5" y="27" fill="#000000" />
  <rect width="1" height="1" x="7" y="27" fill="#000000" />
  <rect width="1" height="1" x="8" y="27" fill="#000000" />
  <rect width="1" height="1" x="9" y="27" fill="#000000" />
  <rect width="1" height="1" x="10" y="27" fill="#000000" />
  <rect width="1" height="1" x="13" y="27" fill="#000000" />
  <rect width="1" height="1" x="14" y="27" fill="#000000" />
  <rect width="1" height="1" x="15" y="27" fill="#000000" />
  <rect width="1" height="1" x="16" y="27" fill="#000000" />
  <rect width="1" height="1" x="19" y="27" fill="#000000" />
  <rect width="1" height="1" x="20" y="27" fill="#000000" />
  <rect width="1" height="1" x="21" y="27" fill="#000000" />
  <rect width="1" height="1" x="22" y="27" fill="#000000" />
  <rect width="1" height="1" x="23" y="27" fill="#000000" />
  <rect width="1" height="1" x="24" y="27" fill="#000000" />
  <rect width="1" height="1" x="25" y="27" fill="#000000" />
  <rect width="1" height="1" x="27" y="27" fill="#000000" />
  <rect width="1" height="1" x="28" y="27" fill="#000000" />
  <rect width="1" height="1" x="37" y="27" fill="#000000" />
  <rect width="1" height="1" x="4" y="28" fill="#000000" />
  <rect width="1" height="1" x="6" y="28" fill="#000000" />
  <rect width="1" height="1" x="9" y="28" fill="#000000" />
  <rect width="1" height="1" x="12" y="28" fill="#000000" />
  <rect width="1" height="1" x="13" y="28" fill="#000000" />
  <rect width="1" height="1" x="15" y="28" fill="#000000" />
  <rect width="1" height="1" x="20" y="28" fill="#000000" />
  <rect width="1" height="1" x="23" y="28" fill="#000000" />
  <rect width="1" height="1" x="25" y="28" fill="#000000" />
  <rect width="1" height="1" x="28" y="28" fill="#000000" />
  <rect width="1" height="1" x="29" y="28" fill="#000000" />
  <rect width="1" height="1" x="30" y="28" fill="#000000" />
  <rect width="1" height="1" x="32" y="28" fill="#000000" />
  <rect width="1" height="1" x="34" y="28" fill="#000000" />
  <rect width="1" height="1" x="1" y="29" fill="#000000" />
  <rect width="1" height="1" x="2" y="29" fill="#000000" />
  <rect width="1" height="1" x="3" y="29" fill="#000000" />
  <rect width="1" height="1" x="5" y="29" fill="#000000" />
  <rect width="1" height="1" x="7" y="29" fill="#000000" />
  <rect width="1" height="1" x="8" y="29" fill="#000000" />
  <rect width="1" height="1" x="11" y="29" fill="#000000" />
  <rect width="1" height="1" x="14" y="29" fill="#000000" />
  <rect width="1" height="1" x="15" y="29" fill="#000000" />
  <rect width="1" height="1" x="17" y="29" fill="#000000" />
  <rect width="1" height="1" x="19" y="29" fill="#000000" />
  <rect width="1" height="1" x="22" y="29" fill="#000000" />
  <rect width="1" height="1" x="24" y="29" fill="#000000" />
  <rect width="1" height="1" x="29" y="29" fill="#000000" />
  <rect width="1" height="1" x="30" y="29" fill="#000000" />
  <rect width="1" height="1" x="31" y="29" fill="#000000" />
  <rect width="1" height="1" x="32" y="29" fill="#000000" />
  <rect width="1" height="1" x="33" y="29" fill="#000000" />
  <rect width="1" height="1" x="34" y="29" fill="#000000" />
  <rect width="1" height="1" x="36" y="29" fill="#000000" />
  <rect width="1" height="1" x="9" y="30" fill="#000000" />
  <rect width="1" height="1" x="11" y="30" fill="#000000" />
  <rect width="1" height="1" x="14" y="30" fill="#000000" />
  <rect width="1" height="1" x="15" y="30" fill="#000000" />
  <rect width="1" height="1" x="16" y="30" fill="#000000" />
  <rect width="1" height="1" x="17" y="30" fill="#000000" />
  <rect width="1" height="1" x="19" y="30" fill="#000000" />
  <rect width="1" height="1" x="21" y="30" fill="#000000" />
  <rect width="1" height="1" x="22" y="30" fill="#000000" />
  <rect width="1" height="1" x="25" y="30" fill="#000000" />
  <rect width="1" height="1" x="27" y="30" fill="#000000" />
  <rect width="1" height="1" x="29" y="30" fill="#000000" />
  <rect width="1" height="1" x="33" y="30" fill="#000000" />
  <rect width="1" height="1" x="37" y="30" fill="#000000" />
  <rect width="1" height="1" x="1" y="31" fill="#000000" />
  <rect width="1" height="1" x="2" y="31" fill="#000000" />
  <rect width="1" height="1" x="3" y="31" fill="#000000" />
  <rect width="1" height="1" x="4" y="31" fill="#000000" />
  <rect width="1" height="1" x="5" y="31" fill="#000000" />
  <rect width="1" height="1" x="6" y="31" fill="#000000" />
  <rect width="1" height="1" x="7" y="31" fill="#000000" />
  <rect width="1" height="1" x="10" y="31" fill="#000000" />
  <rect width="1" height="1" x="12" y="31" fill="#000000" />
  <rect width="1" height="1" x="16" y="31" fill="#000000" />
  <rect width="1" height="1" x="17" y="31" fill="#000000" />
  <rect width="1" height="1" x="18" y="31" fill="#000000" />
  <rect width="1" height="1" x="20" y="31" fill="#000000" />
  <rect width="1" height="1" x="23" y="31" fill="#000000" />
  <rect width="1" height="1" x="24" y="31" fill="#000000" />
  <rect width="1" height="1" x="27" y="31" fill="#000000" />
  <rect width="1" height="1" x="29" y="31" fill="#000000" />
  <rect width="1" height="1" x="31" y="31" fill="#000000" />
  <rect width="1" height="1" x="33" y="31" fill="#000000" />
  <rect width="1" height="1" x="37" y="31" fill="#000000" />
  <rect width="1" height="1" x="1" y="32" fill="#000000" />
  <rect width="1" height="1" x="7" y="32" fill="#000000" />
  <rect width="1" height="1" x="9" y="32" fill="#000000" />
  <rect width="1" height="1" x="14" y="32" fill="#000000" />
  <rect width="1" height="1" x="17" y="32" fill="#000000" />
  <rect width="1" height="1" x="20" y="32" fill="#000000" />
  <rect width="1" height="1" x="21" y="32" fill="#000000" />
  <rect width="1" height="1" x="23" y="32" fill="#000000" />
  <rect width="1" height="1" x="24" y="32" fill="#000000" />
  <rect width="1" height="1" x="25" y="32" fill="#000000" />
  <rect width="1" height="1" x="28" y="32" fill="#000000" />
  <rect width="1" height="1" x="29" y="32" fill="#000000" />
  <rect width="1" height="1" x="33" y="32" fill="#000000" />
  <rect width="1" height="1" x="34" y="32" fill="#000000" />
  <rect width="1" height="1" x="36" y="32" fill="#000000" />
  <rect width="1" height="1" x="1" y="33" fill="#000000" />
  <rect width="1" height="1" x="3" y="33" fill="#000000" />
  <rect width="1" height="1" x="4" y="33" fill="#000000" />
  <rect width="1" height="1" x="5" y="33" fill="#000000" />
  <rect width="1" height="1" x="7" y="33" fill="#000000" />
  <rect width="1" height="1" x="11" y="33" fill="#000000" />
  <rect width="1" height="1" x="12" y="33" fill="#000000" />
  <rect width="1" height="1" x="13" y="33" fill="#000000" />
  <rect width="1" height="1" x="14" y="33" fill="#000000" />
  <rect width="1" height="1" x="16" y="33" fill="#000000" />
  <rect width="1" height="1" x="17" y="33" fill="#000000" />
  <rect width="1" height="1" x="19" y="33" fill="#000000" />
  <rect width="1" height="1" x="20" y="33" fill="#000000" />
  <rect width="1" height="1" x="23" y="33" fill="#000000" />
  <rect width="1" height="1" x="28" y="33" fill="#000000" />
  <rect width="1" height="1" x="29" y="33" fill="#000000" />
  <rect width="1" height="1" x="30" y="33" fill="#000000" />
  <rect width="1" height="1" x="31" y="33" fill="#000000" />
  <rect width="1" height="1" x="32" y="33" fill="#000000" />
  <rect width="1" height="1" x="33" y="33" fill="#000000" />
  <rect width="1" height="1" x="36" y="33" fill="#000000" />
  <rect width="1" height="1" x="37" y="33" fill="#000000" />
  <rect width="1" height="1" x="1" y="34" fill="#000000" />
  <rect width="1" height="1" x="3" y="34" fill="#000000" />
  <rect width="1" height="1" x="4" y="34" fill="#000000" />
  <rect width="1" height="1" x="5" y="34" fill="#000000" />
  <rect width="1" height="1" x="7" y="34" fill="#000000" />
  <rect width="1" height="1" x="10" y="34" fill="#000000" />
  <rect width="1" height="1" x="11" y="34" fill="#000000" />
  <rect width="1" height="1" x="13" y="34" fill="#000000" />
  <rect width="1" height="1" x="16" y="34" fill="#000000" />
  <rect width="1" height="1" x="17" y="34" fill="#000000" />
  <rect width="1" height="1" x="18" y="34" fill="#000000" />
  <rect width="1" height="1" x="20" y="34" fill="#000000" />
  <rect width="1" height="1" x="21" y="34" fill="#000000" />
  <rect width="1" height="1" x="23" y="34" fill="#000000" />
  <rect width="1" height="1" x="25" y="34" fill="#000000" />
  <rect width="1" height="1" x="29" y="34" fill="#000000" />
  <rect width="1" height="1" x="33" y="34" fill="#000000" />
  <rect width="1" height="1" x="36" y="34" fill="#000000" />
  <rect width="1" height="1" x="1" y="35" fill="#000000" />
  <rect width="1" height="1" x="3" y="35" fill="#000000" />
  <rect width="1" height="1" x="4" y="35" fill="#000000" />
  <rect width="1" height="1" x="5" y="35" fill="#000000" />
  <rect width="1" height="1" x="7" y="35" fill="#000000" />
  <rect width="1" height="1" x="9" y="35" fill="#000000" />
  <rect width="1" height="1" x="11" y="35" fill="#000000" />
  <rect width="1" height="1" x="13" y="35" fill="#000000" />
  <rect width="1" height="1" x="14" y="35" fill="#000000" />
  <rect width="1" height="1" x="15" y="35" fill="#000000" />
  <rect width="1" height="1" x="16" y="35" fill="#000000" />
  <rect width="1" height="1" x="20" y="35" fill="#000000" />
  <rect width="1" height="1" x="22" y="35" fill="#000000" />
  <rect width="1" height="1" x="24" y="35" fill="#000000" />
  <rect width="1" height="1" x="25" y="35" fill="#000000" />
  <rect width="1" height="1" x="26" y="35" fill="#000000" />
  <rect width="1" height="1" x="27" y="35" fill="#000000" />
  <rect width="1" height="1" x="29" y="35" fill="#000000" />
  <rect width="1" height="1" x="30" y="35" fill="#000000" />
  <rect width="1" height="1" x="33" y="35" fill="#000000" />
  <rect width="1" height="1" x="37" y="35" fill="#000000" />
  <rect width="1" height="1" x="1" y="36" fill="#000000" />
  <rect width="1" height="1" x="7" y="36" fill="#000000" />
  <rect width="1" height="1" x="9" y="36" fill="#000000" />
  <rect width="1" height="1" x="12" y="36" fill="#000000" />
  <rect width="1" height="1" x="13" y="36" fill="#000000" />
  <rect width="1" height="1" x="15" y="36" fill="#000000" />
  <rect width="1" height="1" x="17" y="36" fill="#000000" />
  <rect width="1" height="1" x="19" y="36" fill="#000000" />
  <rect width="1" height="1" x="23" y="36" fill="#000000" />
  <rect width="1" height="1" x="27" y="36" fill="#000000" />
  <rect width="1" height="1" x="29" y="36" fill="#000000" />
  <rect width="1" height="1" x="30" y="36" fill="#000000" />
  <rect width="1" height="1" x="31" y="36" fill="#000000" />
  <rect width="1" height="1" x="33" y="36" fill="#000000" />
  <rect width="1" height="1" x="1" y="37" fill="#000000" />
  <rect width="1" height="1" x="2" y="37" fill="#000000" />
  <rect width="1" height="1" x="3" y="37" fill="#000000" />
  <rect width="1" height="1" x="4" y="37" fill="#000000" />
  <rect width="1" height="1" x="5" y="37" fill="#000000" />
  <rect width="1" height="1" x="6" y="37" fill="#000000" />
  <rect width="1" height="1" x="7" y="37" fill="#000000" />
  <rect width="1" height="1" x="9" y="37" fill="#000000" />
  <rect width="1" height="1" x="14" y="37" fill="#000000" />
  <rect width="1" height="1" x="15" y="37" fill="#000000" />
  <rect width="1" height="1" x="16" y="37" fill="#000000" />
  <rect width="1" height="1" x="17" y="37" fill="#000000" />
  <rect width="1" height="1" x="20" y="37" fill="#000000" />
  <rect width="1" height="1" x="22" y="37" fill="#000000" />
  <rect width="1" height="1" x="25" y="37" fill="#000000" />
  <rect width="1" height="1" x="29" y="37" fill="#000000" />
  <rect width="1" height="1" x="34" y="37" fill="#000000" />
  <rect width="1" height="1" x="37" y="37" fill="#000000" />
</svg>